<svg viewBox="0 0 780 500" xmlns="http://www.w3.org/2000/svg" font-family="ui-monospace,SFMono-Regular,Menlo,Monaco,Consolas,monospace">
  <defs>
    <marker id="arr-a" markerWidth="8" markerHeight="6" refX="7" refY="3" orient="auto">
      <polygon points="0 0, 8 3, 0 6" fill="#d97706"/>
    </marker>
    <marker id="arr-r" markerWidth="8" markerHeight="6" refX="7" refY="3" orient="auto">
      <polygon points="0 0, 8 3, 0 6" fill="#dc2626"/>
    </marker>
    <marker id="arr-g" markerWidth="8" markerHeight="6" refX="7" refY="3" orient="auto">
      <polygon points="0 0, 8 3, 0 6" fill="#334155"/>
    </marker>
  </defs>

  <rect width="780" height="500" fill="#0f172a"/>

  <!-- ASN wrapper -->
  <rect x="14" y="14" width="752" height="472" rx="8" fill="none" stroke="#1e3a5f" stroke-width="1.5" stroke-dasharray="10,5"/>
  <text x="28" y="35" fill="#1e3a5f" font-size="12">ASN 214576  ·  SIA GOOD, Riga, Latvia  ·  193.169.194.0/23</text>

  <!-- ════ SERVER .85 ════ -->
  <rect x="26" y="54" width="120" height="72" rx="6" fill="#0f172a" stroke="#374151" stroke-width="1.5"/>
  <text x="86" y="80"  fill="#64748b" font-size="11" text-anchor="middle">193.169.194</text>
  <text x="86" y="108" fill="#f97316" font-size="22" font-weight="bold" text-anchor="middle">.85</text>

  <!-- .85 services -->
  <rect x="164" y="57"  width="148" height="28" rx="4" fill="#1c1917" stroke="#44403c" stroke-width="1"/>
  <text x="238" y="76"  fill="#78716c" font-size="12" text-anchor="middle">Apache 2.4.52  :80</text>
  <rect x="164" y="91"  width="148" height="28" rx="4" fill="#431407" stroke="#c2410c" stroke-width="1"/>
  <text x="238" y="110" fill="#fb923c" font-size="12" text-anchor="middle">email tracker  :8888</text>

  <!-- .85 → labels -->
  <line x1="312" y1="71"  x2="340" y2="71"  stroke="#334155" stroke-width="1.5" marker-end="url(#arr-g)"/>
  <text x="348" y="67"  fill="#475569" font-size="12">Nov 2023 – dev tests  (joe@doe.dom)</text>
  <line x1="312" y1="105" x2="340" y2="105" stroke="#d97706" stroke-width="1.5" marker-end="url(#arr-a)"/>
  <text x="348" y="101" fill="#92400e" font-size="12">Dec 2023 – UBS Securities employees ×2</text>
  <text x="348" y="116" fill="#57534e" font-size="11">ken.fu@  ·  adam.liu@ubssecurities.com</text>

  <!-- ════ SERVER .86 ════ -->
  <rect x="26" y="180" width="120" height="100" rx="6" fill="#0f172a" stroke="#dc2626" stroke-width="2"/>
  <!-- "Sleestak C2" badge inside box -->
  <rect x="36" y="216" width="100" height="18" rx="3" fill="#7f1d1d"/>
  <text x="86" y="228" fill="#fca5a5" font-size="10" text-anchor="middle">Sleestak  C2</text>
  <text x="86" y="210" fill="#64748b" font-size="11" text-anchor="middle">193.169.194</text>
  <text x="86" y="264" fill="#f87171" font-size="22" font-weight="bold" text-anchor="middle">.86</text>

  <!-- .86 services -->
  <rect x="164" y="183" width="148" height="28" rx="4" fill="#1c1917" stroke="#44403c" stroke-width="1"/>
  <text x="238" y="202" fill="#78716c" font-size="12" text-anchor="middle">Apache 2.4.52  :80</text>
  <rect x="164" y="217" width="148" height="28" rx="4" fill="#431407" stroke="#c2410c" stroke-width="1"/>
  <text x="238" y="236" fill="#fb923c" font-size="12" text-anchor="middle">email tracker  :8888</text>
  <rect x="164" y="251" width="148" height="28" rx="4" fill="#450a0a" stroke="#dc2626" stroke-width="1.5"/>
  <text x="238" y="270" fill="#fca5a5" font-size="12" text-anchor="middle">malware staging  :80</text>

  <!-- .86 → labels -->
  <line x1="312" y1="197" x2="340" y2="197" stroke="#334155" stroke-width="1.5" marker-end="url(#arr-g)"/>
  <text x="348" y="193" fill="#475569" font-size="12">Jan 2024 – Chinese tracking campaigns</text>
  <line x1="312" y1="231" x2="340" y2="231" stroke="#d97706" stroke-width="1.5" marker-end="url(#arr-a)"/>
  <text x="348" y="227" fill="#92400e" font-size="12">Apr 2024 – UBS Securities employee ×1</text>
  <text x="348" y="242" fill="#57534e" font-size="11">jeff.li@ubssecurities.com</text>
  <line x1="312" y1="265" x2="340" y2="265" stroke="#dc2626" stroke-width="2"   marker-end="url(#arr-r)"/>
  <text x="348" y="261" fill="#ef4444" font-size="12" font-weight="bold">Jun 2026 – /krr4g/  and  /cr44g/</text>
  <text x="348" y="276" fill="#f87171" font-size="12">NAKAZ_MO + SPYSOK  →  Ukrainian MoD</text>
  <text x="348" y="291" fill="#7f1d1d" font-size="11">403 geo-fence  ·  PS1 payload unrecovered</text>

  <!-- ════ SERVER .92 ════ -->
  <rect x="26" y="344" width="120" height="72" rx="6" fill="#0f172a" stroke="#334155" stroke-width="1"/>
  <text x="86" y="370" fill="#64748b" font-size="11" text-anchor="middle">193.169.194</text>
  <text x="86" y="400" fill="#64748b" font-size="22" font-weight="bold" text-anchor="middle">.92</text>

  <!-- .92 services -->
  <rect x="164" y="347" width="148" height="28" rx="4" fill="#0f172a" stroke="#1e293b" stroke-width="1"/>
  <text x="238" y="366" fill="#334155" font-size="12" text-anchor="middle">Apache 2.4.52  :80</text>
  <rect x="164" y="381" width="148" height="28" rx="4" fill="#0f172a" stroke="#1e293b" stroke-width="1"/>
  <text x="238" y="400" fill="#334155" font-size="12" text-anchor="middle">302  →  google.de</text>

  <!-- .92 → labels -->
  <line x1="312" y1="361" x2="340" y2="361" stroke="#d97706" stroke-width="1.5" marker-end="url(#arr-a)"/>
  <text x="348" y="357" fill="#92400e" font-size="12">Apr 2024 – UBS email pixel (same Gmail target)</text>
  <line x1="312" y1="395" x2="340" y2="395" stroke="#334155" stroke-width="1.5" marker-end="url(#arr-g)"/>
  <text x="348" y="391" fill="#475569" font-size="12">2024 – phishing domains</text>
  <text x="348" y="406" fill="#334155" font-size="11">ipl2025.cfd  ·  homedeotcomsurvey.cfd  ·  playrikvip.icu</text>

  <!-- ════ LEGEND ════ -->
  <line x1="26" y1="440" x2="754" y2="440" stroke="#1e293b" stroke-width="1"/>
  <rect x="26"  y="452" width="14" height="12" rx="2" fill="#431407" stroke="#c2410c" stroke-width="1"/>
  <text x="46"  y="463" fill="#475569" font-size="11">UBS Securities recon</text>
  <rect x="200" y="452" width="14" height="12" rx="2" fill="#450a0a" stroke="#dc2626" stroke-width="1.5"/>
  <text x="220" y="463" fill="#475569" font-size="11">Sleestak malware C2</text>
  <rect x="390" y="452" width="14" height="12" rx="2" fill="#1c1917" stroke="#44403c" stroke-width="1"/>
  <text x="410" y="463" fill="#475569" font-size="11">Chinese / other tracking</text>
  <rect x="590" y="452" width="14" height="12" rx="2" fill="#0f172a" stroke="#1e293b" stroke-width="1"/>
  <text x="610" y="463" fill="#475569" font-size="11">evasion / redirect</text>
</svg>
