<svg viewBox="0 0 740 230" xmlns="http://www.w3.org/2000/svg" font-family="ui-monospace,SFMono-Regular,Menlo,Monaco,Consolas,monospace">
  <rect width="740" height="230" fill="#0f172a"/>

  <!-- column header dividers -->
  <line x1="88"  y1="0" x2="88"  y2="230" stroke="#1e293b" stroke-width="1"/>
  <line x1="238" y1="0" x2="238" y2="230" stroke="#1e293b" stroke-width="1"/>
  <line x1="408" y1="0" x2="408" y2="230" stroke="#1e293b" stroke-width="1"/>
  <!-- break indicator area -->
  <line x1="468" y1="0" x2="468" y2="230" stroke="#1e293b" stroke-width="1"/>

  <!-- row dividers -->
  <line x1="0" y1="44"  x2="740" y2="44"  stroke="#1e293b" stroke-width="1"/>
  <line x1="0" y1="109" x2="740" y2="109" stroke="#1e293b" stroke-width="1"/>
  <line x1="0" y1="159" x2="740" y2="159" stroke="#1e293b" stroke-width="1"/>
  <line x1="0" y1="209" x2="740" y2="209" stroke="#1e293b" stroke-width="1"/>

  <!-- ── COLUMN HEADERS ── -->
  <text x="46"  y="20" fill="#334155" font-size="11" text-anchor="middle">server</text>
  <text x="163" y="16" fill="#64748b" font-size="11" text-anchor="middle">Late 2023</text>
  <text x="163" y="30" fill="#475569" font-size="10" text-anchor="middle">Nov – Dec 2023</text>
  <text x="323" y="16" fill="#64748b" font-size="11" text-anchor="middle">Early 2024</text>
  <text x="323" y="30" fill="#475569" font-size="10" text-anchor="middle">Jan – Apr 2024</text>
  <!-- break column -->
  <text x="438" y="24" fill="#1e293b" font-size="10" text-anchor="middle">2024–</text>
  <text x="438" y="36" fill="#1e293b" font-size="10" text-anchor="middle">2025</text>
  <text x="604" y="16" fill="#ef4444" font-size="12" font-weight="bold" text-anchor="middle">Jun 2026 → now</text>
  <text x="604" y="30" fill="#b91c1c" font-size="10" text-anchor="middle">active campaign</text>

  <!-- ── ROW LABELS ── -->
  <text x="46" y="82"  fill="#f97316" font-size="16" font-weight="bold" text-anchor="middle">.85</text>
  <text x="46" y="140" fill="#f87171" font-size="16" font-weight="bold" text-anchor="middle">.86</text>
  <text x="46" y="190" fill="#94a3b8" font-size="16" font-weight="bold" text-anchor="middle">.92</text>

  <!-- ── .85 ROW ── -->
  <!-- Chinese tracking: Late 2023 -->
  <rect x="92" y="48" width="142" height="57" fill="#1c1917" rx="3"/>
  <text x="163" y="71"  fill="#78716c" font-size="11" text-anchor="middle">Chinese tracking</text>
  <text x="163" y="86"  fill="#57534e" font-size="10" text-anchor="middle">heyunyishu.cn</text>
  <text x="163" y="99"  fill="#57534e" font-size="10" text-anchor="middle">cpcmx.cn</text>
  <!-- UBS recon: Early 2024 -->
  <rect x="242" y="48" width="162" height="57" fill="#431407" stroke="#c2410c" stroke-width="1" rx="3"/>
  <text x="323" y="71"  fill="#fb923c" font-size="11" text-anchor="middle" font-weight="bold">UBS Securities</text>
  <text x="323" y="86"  fill="#ea580c" font-size="10" text-anchor="middle">email open-tracker</text>
  <text x="323" y="99"  fill="#9a3412" font-size="10" text-anchor="middle">employees ×2</text>
  <!-- break + Jun 2026: empty for .85 -->
  <rect x="412" y="48" width="52"  height="57" fill="#0c0a09" rx="3"/>
  <rect x="472" y="48" width="264" height="57" fill="#0c0a09" rx="3"/>
  <text x="604" y="82" fill="#1e293b" font-size="11" text-anchor="middle">—</text>

  <!-- ── .86 ROW ── -->
  <!-- Chinese tracking: Late 2023 -->
  <rect x="92"  y="113" width="142" height="42" fill="#1c1917" rx="3"/>
  <text x="163" y="131" fill="#78716c" font-size="11" text-anchor="middle">Chinese tracking</text>
  <text x="163" y="146" fill="#57534e" font-size="10" text-anchor="middle">+ dev tests</text>
  <!-- UBS recon: Early 2024 -->
  <rect x="242" y="113" width="162" height="42" fill="#431407" stroke="#c2410c" stroke-width="1" rx="3"/>
  <text x="323" y="131" fill="#fb923c" font-size="11" text-anchor="middle" font-weight="bold">UBS Securities</text>
  <text x="323" y="146" fill="#9a3412" font-size="10" text-anchor="middle">employee ×1  +  misc</text>
  <!-- break: quiet -->
  <rect x="412" y="113" width="52" height="42" fill="#0c0a09" rx="3"/>
  <text x="438" y="134" fill="#1e2940" font-size="18" text-anchor="middle">⋯</text>
  <!-- Sleestak -->
  <rect x="472" y="109" width="264" height="50" fill="#450a0a" stroke="#dc2626" stroke-width="2" rx="3"/>
  <text x="604" y="130" fill="#f87171" font-size="14" font-weight="bold" text-anchor="middle">SLEESTAK</text>
  <text x="604" y="148" fill="#ef4444" font-size="10" text-anchor="middle">NAKAZ_MO · SPYSOK · UA MoD targets</text>

  <!-- ── .92 ROW ── -->
  <!-- Late 2023: empty -->
  <rect x="92"  y="163" width="142" height="42" fill="#0c0a09" rx="3"/>
  <text x="163" y="189" fill="#1e293b" font-size="11" text-anchor="middle">—</text>
  <!-- Early 2024: UBS pixel -->
  <rect x="242" y="163" width="162" height="42" fill="#1c0a00" stroke="#7c2d12" stroke-width="1" rx="3"/>
  <text x="323" y="181" fill="#c2410c" font-size="11" text-anchor="middle">UBS pixel tracker</text>
  <text x="323" y="196" fill="#7c2d12" font-size="10" text-anchor="middle">+ phishing domains</text>
  <!-- break: quiet -->
  <rect x="412" y="163" width="52" height="42" fill="#0c0a09" rx="3"/>
  <text x="438" y="184" fill="#1e2940" font-size="18" text-anchor="middle">⋯</text>
  <!-- Jun 2026: empty -->
  <rect x="472" y="163" width="264" height="42" fill="#0c0a09" rx="3"/>
  <text x="604" y="189" fill="#1e293b" font-size="11" text-anchor="middle">—</text>

  <!-- ── FOOTER ── -->
  <text x="438" y="222" fill="#1e293b" font-size="10" text-anchor="middle">≈ 25 months</text>
  <text x="130" y="222" fill="#334155" font-size="10" text-anchor="middle">passive OSINT: VirusTotal · Shodan · RIPE</text>
  <rect x="476" y="214" width="12" height="10" rx="2" fill="#450a0a" stroke="#dc2626" stroke-width="1.5"/>
  <text x="494" y="223" fill="#475569" font-size="10">this campaign</text>
  <rect x="588" y="214" width="12" height="10" rx="2" fill="#431407" stroke="#c2410c" stroke-width="1"/>
  <text x="606" y="223" fill="#475569" font-size="10">UBS recon</text>
  <rect x="664" y="214" width="12" height="10" rx="2" fill="#1c1917"/>
  <text x="682" y="223" fill="#475569" font-size="10">other</text>
</svg>
