<svg viewBox="0 0 740 460" xmlns="http://www.w3.org/2000/svg" font-family="ui-monospace,SFMono-Regular,Menlo,Monaco,Consolas,monospace">
  <defs>
    <marker id="arr-amber" markerWidth="7" markerHeight="7" refX="5" refY="3.5" orient="auto">
      <polygon points="0 0, 7 3.5, 0 7" fill="#d97706"/>
    </marker>
    <marker id="arr-red" markerWidth="7" markerHeight="7" refX="5" refY="3.5" orient="auto">
      <polygon points="0 0, 7 3.5, 0 7" fill="#dc2626"/>
    </marker>
    <marker id="arr-gray" markerWidth="7" markerHeight="7" refX="5" refY="3.5" orient="auto">
      <polygon points="0 0, 7 3.5, 0 7" fill="#4b5563"/>
    </marker>
  </defs>

  <!-- Background -->
  <rect width="740" height="460" fill="#0f172a"/>

  <!-- ASN outer border -->
  <rect x="16" y="16" width="708" height="428" rx="8" fill="none" stroke="#1e3a5f" stroke-width="1.5" stroke-dasharray="8,4"/>
  <text x="30" y="36" fill="#334155" font-size="11">ASN 214576</text>
  <text x="96" y="36" fill="#475569" font-size="11"> · SIA GOOD, Riga, Latvia</text>
  <text x="30" y="50" fill="#1e3a5f" font-size="11">193.169.194.0/23</text>

  <!-- ─── SERVER .85 ─── -->
  <rect x="32" y="70" width="108" height="58" rx="6" fill="#0f172a" stroke="#334155" stroke-width="1.5"/>
  <text x="86" y="93" fill="#94a3b8" font-size="10" text-anchor="middle">193.169.194</text>
  <text x="86" y="116" fill="#f97316" font-size="16" font-weight="bold" text-anchor="middle">.85</text>

  <!-- .85 service badges -->
  <rect x="162" y="73" width="152" height="22" rx="4" fill="#1c1917" stroke="#78350f" stroke-width="1"/>
  <text x="238" y="88" fill="#92400e" font-size="10" text-anchor="middle">Apache 2.4.52  :80</text>
  <rect x="162" y="99" width="152" height="22" rx="4" fill="#431407" stroke="#c2410c" stroke-width="1"/>
  <text x="238" y="114" fill="#fb923c" font-size="10" text-anchor="middle">email open-tracker  :8888</text>

  <!-- .85 arrows + labels -->
  <line x1="314" y1="84" x2="344" y2="84" stroke="#d97706" stroke-width="1.5" marker-end="url(#arr-amber)"/>
  <text x="350" y="80" fill="#64748b" font-size="10">Nov 2023 – dev tests  joe@doe.dom</text>
  <line x1="314" y1="110" x2="344" y2="110" stroke="#d97706" stroke-width="1.5" marker-end="url(#arr-amber)"/>
  <text x="350" y="106" fill="#64748b" font-size="10">Dec 2023 – UBS Securities employees ×2</text>
  <text x="350" y="120" fill="#475569" font-size="10">ken.fu@  ·  adam.liu@ubssecurities.com</text>

  <!-- ─── SERVER .86 ─── -->
  <rect x="32" y="185" width="108" height="90" rx="6" fill="#0f172a" stroke="#dc2626" stroke-width="2"/>
  <text x="86" y="208" fill="#94a3b8" font-size="10" text-anchor="middle">193.169.194</text>
  <text x="86" y="262" fill="#f87171" font-size="16" font-weight="bold" text-anchor="middle">.86</text>
  <!-- "Sleestak C2" tag -->
  <rect x="36" y="214" width="100" height="16" rx="3" fill="#7f1d1d"/>
  <text x="86" y="225" fill="#fca5a5" font-size="9" text-anchor="middle">Sleestak C2</text>

  <!-- .86 service badges -->
  <rect x="162" y="188" width="152" height="22" rx="4" fill="#1c1917" stroke="#78350f" stroke-width="1"/>
  <text x="238" y="203" fill="#92400e" font-size="10" text-anchor="middle">Apache 2.4.52  :80</text>
  <rect x="162" y="214" width="152" height="22" rx="4" fill="#431407" stroke="#c2410c" stroke-width="1"/>
  <text x="238" y="229" fill="#fb923c" font-size="10" text-anchor="middle">email open-tracker  :8888</text>
  <rect x="162" y="240" width="152" height="22" rx="4" fill="#450a0a" stroke="#991b1b" stroke-width="1"/>
  <text x="238" y="255" fill="#fca5a5" font-size="10" text-anchor="middle">malware staging  :80</text>

  <!-- .86 arrows + labels -->
  <line x1="314" y1="199" x2="344" y2="199" stroke="#d97706" stroke-width="1.5" marker-end="url(#arr-amber)"/>
  <text x="350" y="195" fill="#64748b" font-size="10">Jan 2024 – Chinese tracking (heyunyishu.cn)</text>
  <line x1="314" y1="225" x2="344" y2="225" stroke="#d97706" stroke-width="1.5" marker-end="url(#arr-amber)"/>
  <text x="350" y="221" fill="#64748b" font-size="10">Apr 2024 – UBS Securities employee ×1</text>
  <text x="350" y="234" fill="#475569" font-size="10">jeff.li@ubssecurities.com</text>
  <line x1="314" y1="251" x2="344" y2="251" stroke="#dc2626" stroke-width="1.5" marker-end="url(#arr-red)"/>
  <text x="350" y="247" fill="#f87171" font-size="10">Jun 2026 – /krr4g/  /cr44g/</text>
  <text x="350" y="260" fill="#ef4444" font-size="10">NAKAZ_MO + SPYSOK lures → UA MoD targets</text>
  <text x="350" y="272" fill="#b91c1c" font-size="10">403 geo-fence · PS1 payload unrecovered</text>

  <!-- ─── SERVER .92 ─── -->
  <rect x="32" y="335" width="108" height="58" rx="6" fill="#0f172a" stroke="#334155" stroke-width="1"/>
  <text x="86" y="358" fill="#94a3b8" font-size="10" text-anchor="middle">193.169.194</text>
  <text x="86" y="381" fill="#475569" font-size="16" font-weight="bold" text-anchor="middle">.92</text>

  <!-- .92 service badges -->
  <rect x="162" y="338" width="152" height="22" rx="4" fill="#0f172a" stroke="#1e293b" stroke-width="1"/>
  <text x="238" y="353" fill="#334155" font-size="10" text-anchor="middle">Apache 2.4.52  :80</text>
  <rect x="162" y="364" width="152" height="22" rx="4" fill="#0f172a" stroke="#1e293b" stroke-width="1"/>
  <text x="238" y="379" fill="#334155" font-size="10" text-anchor="middle">302 → google.de  [evasion]</text>

  <!-- .92 arrows + labels -->
  <line x1="314" y1="349" x2="344" y2="349" stroke="#4b5563" stroke-width="1" marker-end="url(#arr-gray)"/>
  <text x="350" y="345" fill="#475569" font-size="10">Apr 2024 – email tracker :8888</text>
  <line x1="314" y1="375" x2="344" y2="375" stroke="#4b5563" stroke-width="1" marker-end="url(#arr-gray)"/>
  <text x="350" y="371" fill="#475569" font-size="10">2024 – phishing (ipl2025.cfd, playrikvip.icu)</text>

  <!-- ─── LEGEND ─── -->
  <line x1="32" y1="420" x2="720" y2="420" stroke="#1e293b" stroke-width="1"/>
  <rect x="32" y="430" width="12" height="10" rx="2" fill="#431407" stroke="#c2410c" stroke-width="1"/>
  <text x="50" y="440" fill="#475569" font-size="10">email tracking</text>
  <rect x="148" y="430" width="12" height="10" rx="2" fill="#450a0a" stroke="#991b1b" stroke-width="1"/>
  <text x="166" y="440" fill="#475569" font-size="10">malware C2  (Sleestak)</text>
  <rect x="304" y="430" width="12" height="10" rx="2" fill="#0f172a" stroke="#1e293b" stroke-width="1"/>
  <text x="322" y="440" fill="#475569" font-size="10">evasion / redirect</text>
  <rect x="440" y="432" width="30" height="1" fill="none" stroke="#dc2626" stroke-width="2" stroke-dasharray="4,2"/>
  <text x="476" y="440" fill="#475569" font-size="10">active campaign border</text>
</svg>
