<svg viewBox="0 0 740 200" xmlns="http://www.w3.org/2000/svg" font-family="ui-monospace,SFMono-Regular,Menlo,Monaco,Consolas,monospace">
  <!-- Background -->
  <rect width="740" height="200" fill="#0f172a"/>

  <!-- Title -->
  <text x="24" y="28" fill="#334155" font-size="11">193.169.194.0/23  —  tenant history</text>

  <!-- Timeline rail -->
  <line x1="24" y1="100" x2="716" y2="100" stroke="#1e293b" stroke-width="2"/>

  <!-- Date markers on rail -->
  <!-- Nov 2023 = x:60, Jan 2024 = x:120, Apr 2024 = x:220, Jun 2024 = x:300, Jun 2026 = x:640, Jul 2026 = x:700 -->

  <!-- Tick: Nov 2023 -->
  <line x1="60" y1="96" x2="60" y2="104" stroke="#334155" stroke-width="1.5"/>
  <text x="60" y="120" fill="#334155" font-size="9" text-anchor="middle">Nov 2023</text>

  <!-- Tick: Dec 2023 -->
  <line x1="110" y1="96" x2="110" y2="104" stroke="#334155" stroke-width="1.5"/>
  <text x="110" y="120" fill="#334155" font-size="9" text-anchor="middle">Dec 2023</text>

  <!-- Tick: Apr 2024 -->
  <line x1="240" y1="96" x2="240" y2="104" stroke="#334155" stroke-width="1.5"/>
  <text x="240" y="120" fill="#334155" font-size="9" text-anchor="middle">Apr 2024</text>

  <!-- Tick: Jun 2026 -->
  <line x1="600" y1="96" x2="600" y2="104" stroke="#334155" stroke-width="1.5"/>
  <text x="600" y="120" fill="#334155" font-size="9" text-anchor="middle">Jun 2026</text>

  <!-- Tick: now -->
  <line x1="700" y1="90" x2="700" y2="110" stroke="#475569" stroke-width="2"/>
  <text x="700" y="122" fill="#475569" font-size="9" text-anchor="middle">now</text>

  <!-- ── BAND 1: Chinese tracking (Nov 2023 – Jan 2024) ── -->
  <rect x="60" y="58" width="100" height="26" rx="4" fill="#292524" stroke="#57534e" stroke-width="1"/>
  <text x="110" y="74" fill="#78716c" font-size="9" text-anchor="middle">Chinese tracking</text>
  <text x="110" y="84" fill="#57534e" font-size="8" text-anchor="middle">heyunyishu.cn · cpcmx.cn</text>
  <!-- connector to rail -->
  <line x1="110" y1="84" x2="110" y2="98" stroke="#3d3834" stroke-width="1" stroke-dasharray="3,2"/>

  <!-- ── BAND 2: UBS Securities spear-phishing (Dec 2023 – Apr 2024) ── -->
  <rect x="108" y="40" width="136" height="26" rx="4" fill="#1c0a00" stroke="#c2410c" stroke-width="1.5"/>
  <text x="176" y="56" fill="#ea580c" font-size="9" text-anchor="middle">UBS Securities spear-phish recon</text>
  <text x="176" y="66" fill="#9a3412" font-size="8" text-anchor="middle">email open-tracker :8888 · .85 .86 .92</text>
  <!-- connector to rail -->
  <line x1="176" y1="67" x2="176" y2="98" stroke="#7c2d12" stroke-width="1" stroke-dasharray="3,2"/>

  <!-- ── BAND 3: Misc phishing 2024 ── -->
  <rect x="240" y="58" width="130" height="26" rx="4" fill="#0f172a" stroke="#1e293b" stroke-width="1"/>
  <text x="305" y="74" fill="#334155" font-size="9" text-anchor="middle">misc phishing domains</text>
  <text x="305" y="84" fill="#1e293b" font-size="8" text-anchor="middle">ipl2025.cfd · playrikvip.icu</text>
  <line x1="305" y1="84" x2="305" y2="98" stroke="#1e2940" stroke-width="1" stroke-dasharray="3,2"/>

  <!-- ── BAND 4: Sleestak / NAKAZ MO (Jun 2026 → now) ── -->
  <rect x="598" y="40" width="106" height="36" rx="4" fill="#450a0a" stroke="#dc2626" stroke-width="2"/>
  <text x="651" y="57" fill="#f87171" font-size="9" text-anchor="middle" font-weight="bold">Sleestak</text>
  <text x="651" y="68" fill="#ef4444" font-size="8" text-anchor="middle">NAKAZ_MO lures</text>
  <text x="651" y="78" fill="#b91c1c" font-size="8" text-anchor="middle">UA MoD targets</text>
  <!-- connector to rail -->
  <line x1="649" y1="77" x2="649" y2="98" stroke="#7f1d1d" stroke-width="1" stroke-dasharray="3,2"/>

  <!-- Gap label between UBS and Sleestak -->
  <text x="450" y="97" fill="#1e293b" font-size="10" text-anchor="middle">· · · · · · · · · · · 2024–2025 quiet · · · · · · · · · · ·</text>

  <!-- Bottom: server usage bar -->
  <text x="24" y="150" fill="#1e293b" font-size="9">.85</text>
  <rect x="40" y="143" width="210" height="8" rx="3" fill="#431407" opacity="0.8"/>

  <text x="24" y="166" fill="#1e293b" font-size="9">.86</text>
  <rect x="40" y="159" width="640" height="8" rx="3" fill="#1c1917"/>
  <rect x="40" y="159" width="210" height="8" rx="3" fill="#431407" opacity="0.6"/>
  <rect x="558" y="159" width="122" height="8" rx="3" fill="#7f1d1d" opacity="0.9"/>

  <text x="24" y="182" fill="#1e293b" font-size="9">.92</text>
  <rect x="40" y="175" width="210" height="8" rx="3" fill="#1c1917"/>
  <rect x="198" y="175" width="52" height="8" rx="3" fill="#431407" opacity="0.4"/>
</svg>
