<svg xmlns="http://www.w3.org/2000/svg" width="96" height="96" viewBox="0 0 96 96">
  <rect width="96" height="96" fill="#0f172a"/>
  <rect width="96" height="96" fill="url(#g)"/>
  <defs>
    <linearGradient id="g" x1="0" y1="0" x2="1" y2="1">
      <stop offset="0" stop-color="#1e293b" stop-opacity="1"/>
      <stop offset="1" stop-color="#0f172a" stop-opacity="1"/>
    </linearGradient>
  </defs>
  <!-- Grid lines -->
  <line x1="0" y1="24" x2="96" y2="24" stroke="#1e3a5f" stroke-width="0.4"/>
  <line x1="0" y1="48" x2="96" y2="48" stroke="#1e3a5f" stroke-width="0.4"/>
  <line x1="0" y1="72" x2="96" y2="72" stroke="#1e3a5f" stroke-width="0.4"/>
  <line x1="24" y1="0" x2="24" y2="96" stroke="#1e3a5f" stroke-width="0.4"/>
  <line x1="48" y1="0" x2="48" y2="96" stroke="#1e3a5f" stroke-width="0.4"/>
  <line x1="72" y1="0" x2="72" y2="96" stroke="#1e3a5f" stroke-width="0.4"/>
  <!-- Top label bar -->
  <rect x="8" y="8" width="80" height="14" rx="2" fill="#1e293b" stroke="#334155" stroke-width="0.5"/>
  <text x="13" y="18.5" font-family="monospace" font-size="7" fill="#64748b">Index of /</text>
  <circle cx="78" cy="15" r="2.5" fill="#f43f5e" opacity="0.7"/>
  <!-- File rows -->
  <rect x="8" y="26" width="80" height="8" rx="1" fill="#1e293b" opacity="0.6"/>
  <text x="13" y="32.5" font-family="monospace" font-size="6" fill="#38bdf8">semob.df.gov.br.tar.gz</text>
  <rect x="8" y="37" width="80" height="8" rx="1" fill="#1e293b" opacity="0.4"/>
  <text x="13" y="43.5" font-family="monospace" font-size="6" fill="#94a3b8">gpudrive.exe</text>
  <rect x="8" y="48" width="80" height="8" rx="1" fill="#1e293b" opacity="0.4"/>
  <text x="13" y="54.5" font-family="monospace" font-size="6" fill="#94a3b8">tabby-1.0.234-setup-x64.exe</text>
  <!-- Bottom accent: CN flag red + BR green -->
  <rect x="8" y="62" width="38" height="26" rx="3" fill="#1e293b" stroke="#ef4444" stroke-width="0.8" opacity="0.85"/>
  <text x="27" y="79" font-family="serif" font-size="16" fill="#ef4444" text-anchor="middle" opacity="0.9">冰蝎</text>
  <rect x="50" y="62" width="38" height="26" rx="3" fill="#1e293b" stroke="#22c55e" stroke-width="0.8" opacity="0.85"/>
  <text x="69" y="77" font-family="monospace" font-size="7.5" fill="#22c55e" text-anchor="middle">47.237</text>
  <text x="69" y="85" font-family="monospace" font-size="7.5" fill="#22c55e" text-anchor="middle">.75.155</text>
</svg>
