<svg xmlns="http://www.w3.org/2000/svg" width="96" height="96" viewBox="0 0 96 96">
  <rect width="96" height="96" fill="#0f172a"/>
  <!-- Forex green accent top -->
  <rect x="0" y="0" width="96" height="3" fill="#22c55e" opacity="0.8"/>
  <!-- WealthGAF fake brand badge -->
  <rect x="6" y="7" width="38" height="14" rx="2" fill="#1e293b" stroke="#22c55e" stroke-width="0.7"/>
  <text x="25" y="17" font-family="monospace" font-size="5.5" fill="#4ade80" text-anchor="middle">WealthGAF</text>
  <!-- Arrow -->
  <line x1="44" y1="14" x2="52" y2="14" stroke="#475569" stroke-width="1"/>
  <polygon points="54,14 51,12.5 51,15.5" fill="#475569"/>
  <!-- 4-stage chain boxes -->
  <rect x="54" y="7" width="14" height="14" rx="2" fill="#1e293b" stroke="#ef4444" stroke-width="0.7"/>
  <text x="61" y="16" font-family="monospace" font-size="4.5" fill="#fca5a5" text-anchor="middle">LNK</text>
  <!-- Stage icons row -->
  <rect x="6" y="27" width="18" height="13" rx="2" fill="#1e293b" stroke="#f59e0b" stroke-width="0.6"/>
  <text x="15" y="36" font-family="monospace" font-size="4.5" fill="#fbbf24" text-anchor="middle">AutoIt</text>
  <line x1="24" y1="33" x2="28" y2="33" stroke="#334155" stroke-width="0.8"/>
  <rect x="28" y="27" width="18" height="13" rx="2" fill="#1e293b" stroke="#8b5cf6" stroke-width="0.6"/>
  <text x="37" y="36" font-family="monospace" font-size="4.5" fill="#c4b5fd" text-anchor="middle">PNG/ZIP</text>
  <line x1="46" y1="33" x2="50" y2="33" stroke="#334155" stroke-width="0.8"/>
  <rect x="50" y="27" width="38" height="13" rx="2" fill="#1e293b" stroke="#3b82f6" stroke-width="0.6"/>
  <text x="69" y="36" font-family="monospace" font-size="4.5" fill="#93c5fd" text-anchor="middle">ASYNCBOTNET</text>
  <!-- Crypto monitor section -->
  <rect x="6" y="46" width="84" height="16" rx="2" fill="#1c1917" stroke="#78716c" stroke-width="0.5"/>
  <text x="48" y="53" font-family="monospace" font-size="4.5" fill="#a8a29e" text-anchor="middle">Crypto monitor: Ledger · Trezor · Exodus</text>
  <text x="48" y="60" font-family="monospace" font-size="4.5" fill="#78716c" text-anchor="middle">MetaMask · Trust · Binance · Bybit + 20 more</text>
  <!-- Socket.IO / C2 badge -->
  <rect x="6" y="68" width="40" height="11" rx="2" fill="#1e293b" stroke="#3b82f6" stroke-width="0.5"/>
  <text x="26" y="77" font-family="monospace" font-size="4.5" fill="#60a5fa" text-anchor="middle">Socket.IO C2</text>
  <rect x="50" y="68" width="40" height="11" rx="2" fill="#1e293b" stroke="#6366f1" stroke-width="0.5"/>
  <text x="70" y="77" font-family="monospace" font-size="4.5" fill="#a5b4fc" text-anchor="middle">naturevalleycloud</text>
  <!-- Dropbox staging note -->
  <rect x="6" y="83" width="84" height="10" rx="2" fill="#0c1a0c" stroke="#166534" stroke-width="0.5"/>
  <text x="48" y="91" font-family="monospace" font-size="4.5" fill="#4ade80" text-anchor="middle">staged via Dropbox · 0 VT detections</text>
</svg>
